<svg width="74" height="55" viewBox="0 0 74 55" fill="none" xmlns="http://www.w3.org/2000/svg">
<path id="Vector" d="M36.0189 14.509L12.3343 32.8144V52.5712C12.3343 53.0828 12.5509 53.5734 12.9363 53.9351C13.3218 54.2968 13.8446 54.5 14.3897 54.5L28.7852 54.465C29.3285 54.4625 29.8487 54.2582 30.2319 53.8967C30.6152 53.5353 30.8303 53.0461 30.8303 52.5363V40.9985C30.8303 40.4869 31.0469 39.9964 31.4323 39.6346C31.8178 39.2729 32.3406 39.0697 32.8857 39.0697H41.1073C41.6524 39.0697 42.1752 39.2729 42.5607 39.6346C42.9461 39.9964 43.1627 40.4869 43.1627 40.9985V52.5278C43.1619 52.7816 43.2144 53.0331 43.3173 53.2678C43.4202 53.5025 43.5715 53.7158 43.7624 53.8956C43.9534 54.0753 44.1803 54.2179 44.43 54.3152C44.6798 54.4125 44.9476 54.4626 45.2181 54.4626L59.6084 54.5C60.1536 54.5 60.6764 54.2968 61.0618 53.9351C61.4473 53.5734 61.6638 53.0828 61.6638 52.5712V32.8012L37.9844 14.509C37.706 14.2984 37.3592 14.1836 37.0016 14.1836C36.6441 14.1836 36.2973 14.2984 36.0189 14.509ZM73.431 26.9509L62.6915 18.6439V1.94659C62.6915 1.56293 62.5291 1.19498 62.24 0.923697C61.9509 0.652408 61.5588 0.5 61.15 0.5H53.9561C53.5473 0.5 53.1552 0.652408 52.8661 0.923697C52.577 1.19498 52.4146 1.56293 52.4146 1.94659V10.6997L40.9133 1.82001C39.8096 0.967706 38.4246 0.501704 36.9952 0.501704C35.5658 0.501704 34.1808 0.967706 33.0771 1.82001L0.559452 26.9509C0.403354 27.072 0.274208 27.2207 0.179392 27.3886C0.0845769 27.5566 0.0259504 27.7404 0.00686266 27.9296C-0.0122251 28.1188 0.00860012 28.3096 0.0681483 28.4913C0.127696 28.6729 0.2248 28.8418 0.353912 28.9882L3.6297 32.7252C3.75846 32.8721 3.91684 32.9938 4.09576 33.0832C4.27468 33.1726 4.47064 33.228 4.67242 33.2463C4.8742 33.2645 5.07783 33.2452 5.27166 33.1895C5.46548 33.1339 5.6457 33.0428 5.802 32.9217L36.0189 9.5665C36.2973 9.35593 36.6441 9.24111 37.0016 9.24111C37.3592 9.24111 37.706 9.35593 37.9844 9.5665L68.2026 32.9217C68.3586 33.0429 68.5385 33.134 68.7321 33.1899C68.9257 33.2457 69.1291 33.2653 69.3307 33.2474C69.5323 33.2295 69.7282 33.1744 69.9071 33.0855C70.0861 32.9965 70.2446 32.8753 70.3736 32.7288L73.6494 28.9918C73.7784 28.8445 73.875 28.6748 73.9339 28.4924C73.9927 28.3099 74.0126 28.1184 73.9923 27.9287C73.972 27.7391 73.912 27.5551 73.8156 27.3873C73.7193 27.2194 73.5886 27.0711 73.431 26.9509Z" fill="white"/>
</svg>
