<svg width="55" height="74" viewBox="0 0 55 74" fill="none" xmlns="http://www.w3.org/2000/svg">
<path id="Vector" d="M2.79834 28.4078C10.0498 30.2578 20.6955 30.8333 27.5869 30.8333C34.4783 30.8333 45.1241 30.2578 52.3755 28.4078C49.4441 34.6156 44.3012 37.37 43.0669 43.1667C42.5012 45.6744 42.0898 49.21 42.3983 51.8C42.6041 53.4444 41.0098 54.8833 38.9526 55.0478C35.6098 55.3356 31.8555 55.5 27.5869 55.5C23.3183 55.5 19.5641 55.3356 16.2212 55.0478C14.1641 54.8833 12.6212 53.4444 12.7755 51.8C13.0841 49.21 12.6212 45.6744 12.1069 43.1667C10.8726 37.37 5.7812 34.6156 2.79834 28.4078ZM16.0155 58.1722C20.0269 58.46 24.4498 58.5833 27.5869 58.5833C30.7241 58.5833 35.1469 58.46 39.1583 58.1722L37.2041 67.7511C37.1012 68.4089 36.6898 69.0667 36.0212 69.5189L34.2212 70.8344C34.1183 70.9167 33.9641 70.9989 33.8612 71.1222L31.9583 72.9311C31.2898 73.5889 30.1583 74 28.9755 74H26.1469C24.9641 74 23.8326 73.5889 23.1126 72.89L21.2098 71.0811C21.1069 70.9989 21.0041 70.8756 20.8498 70.7933L19.0498 69.4778C18.4326 69.0256 17.9698 68.3678 17.8669 67.71L16.0155 58.1722ZM27.5869 0C42.4498 0 54.5869 10.2778 54.5869 20.0622C54.5869 20.9256 54.3812 21.7478 54.2783 22.57C54.1755 23.3511 53.9698 24.0089 53.7641 24.7489C49.5469 26.1467 40.6498 27.75 27.5869 27.75C14.5241 27.75 5.62691 26.1467 1.40977 24.7078C1.20406 23.9678 1.04977 23.31 0.895485 22.5289C0.792628 21.7067 0.586914 20.9256 0.586914 20.0211C0.586914 10.2778 12.7241 0 27.5869 0Z" fill="white"/>
</svg>
