<svg width="54" height="74" viewBox="0 0 54 74" fill="none" xmlns="http://www.w3.org/2000/svg">
<path id="Vector" d="M51.75 6.9375C52.9875 6.9375 54 5.89687 54 4.625V2.3125C54 1.04062 52.9875 0 51.75 0H2.25C1.0125 0 0 1.04062 0 2.3125V4.625C0 5.89687 1.0125 6.9375 2.25 6.9375H4.5V29.5855C1.65937 31.0453 0 32.7941 0 34.6875C0 44.4 4.86562 52.9273 12.2062 57.8848L9.19687 68.0309C8.31094 70.9938 10.4766 74 13.5 74H40.5C43.5234 74 45.6891 70.9938 44.8031 68.0309L41.7938 57.8848C49.1344 52.9273 54 44.4 54 34.6875C54 32.7941 52.3406 31.0453 49.5 29.5855V6.9375H51.75ZM11.25 10.4062C11.25 9.77031 11.7562 9.25 12.375 9.25H19.125C19.7437 9.25 20.25 9.77031 20.25 10.4062V12.7188C20.25 13.3547 19.7437 13.875 19.125 13.875H12.375C11.7562 13.875 11.25 13.3547 11.25 12.7188V10.4062ZM27 39.3125C16.1578 39.3125 7.36875 37.2457 7.36875 34.6875C7.36875 32.1293 16.1578 30.0625 27 30.0625C37.8422 30.0625 46.6312 32.1293 46.6312 34.6875C46.6312 37.2457 37.8422 39.3125 27 39.3125Z" fill="white"/>
</svg>
