<svg width="74" height="87" viewBox="0 0 74 87" fill="none" xmlns="http://www.w3.org/2000/svg">
<g id="Property 1=icons">
<path id="Vector" d="M71.8109 36.906L39.2509 2.45861C38.0792 1.08936 36.1984 1.08936 35.0576 2.42258C35.0576 2.42258 35.0576 2.42258 35.0267 2.45861L2.49756 36.906C1.14089 38.023 0.832555 40.185 1.75756 41.7344C2.40506 42.8154 3.48422 43.3559 4.59422 43.1757H10.3909V81.4065C10.3909 83.3163 11.7167 84.8657 13.3509 84.8657H60.9267C62.5609 84.8657 63.8867 83.3163 63.8867 81.4065V43.1757H69.8376C71.4717 43.3198 72.8901 41.8785 73.0442 39.9688C73.1367 38.7797 72.6742 37.6266 71.8109 36.906ZM57.9667 60.5795H16.3417V43.2117H57.9667V60.5795Z" fill="white"/>
</g>
</svg>
